<mxfile host="app.diagrams.net" modified="2023-05-26T09:32:13.098Z" agent="Mozilla/5.0 (Windows NT 10.0; Win64; x64) AppleWebKit/537.36 (KHTML, like Gecko) Chrome/113.0.0.0 Safari/537.36 Edg/113.0.1774.50" etag="DT9DW59zNwsZYCvzBNQc" version="21.3.3" type="device">
  <diagram name="第 1 页" id="9JLo4b6HMTorWVjqjoT4">
    <mxGraphModel dx="1050" dy="549" grid="1" gridSize="10" guides="1" tooltips="1" connect="1" arrows="1" fold="1" page="1" pageScale="1" pageWidth="827" pageHeight="1169" math="0" shadow="0">
      <root>
        <mxCell id="0" />
        <mxCell id="1" parent="0" />
        <mxCell id="KgHte2kJdhpR_4D7Pjc9-12" style="edgeStyle=orthogonalEdgeStyle;rounded=0;orthogonalLoop=1;jettySize=auto;html=1;entryX=0.5;entryY=0;entryDx=0;entryDy=0;" parent="1" source="KgHte2kJdhpR_4D7Pjc9-1" target="KgHte2kJdhpR_4D7Pjc9-2" edge="1">
          <mxGeometry relative="1" as="geometry" />
        </mxCell>
        <mxCell id="KgHte2kJdhpR_4D7Pjc9-1" value="&lt;font style=&quot;font-size: 16px;&quot;&gt;dim=4880&lt;/font&gt;" style="rounded=0;whiteSpace=wrap;html=1;" parent="1" vertex="1">
          <mxGeometry x="300" y="150" width="196" height="30" as="geometry" />
        </mxCell>
        <mxCell id="KgHte2kJdhpR_4D7Pjc9-13" style="edgeStyle=orthogonalEdgeStyle;rounded=0;orthogonalLoop=1;jettySize=auto;html=1;entryX=0.5;entryY=0;entryDx=0;entryDy=0;" parent="1" source="KgHte2kJdhpR_4D7Pjc9-2" target="KgHte2kJdhpR_4D7Pjc9-3" edge="1">
          <mxGeometry relative="1" as="geometry" />
        </mxCell>
        <mxCell id="KgHte2kJdhpR_4D7Pjc9-2" value="&lt;font style=&quot;font-size: 16px;&quot;&gt;dim=488&lt;/font&gt;" style="rounded=0;whiteSpace=wrap;html=1;" parent="1" vertex="1">
          <mxGeometry x="317" y="200" width="162" height="30" as="geometry" />
        </mxCell>
        <mxCell id="KgHte2kJdhpR_4D7Pjc9-14" style="edgeStyle=orthogonalEdgeStyle;rounded=0;orthogonalLoop=1;jettySize=auto;html=1;entryX=0.5;entryY=0;entryDx=0;entryDy=0;" parent="1" source="KgHte2kJdhpR_4D7Pjc9-3" target="KgHte2kJdhpR_4D7Pjc9-4" edge="1">
          <mxGeometry relative="1" as="geometry" />
        </mxCell>
        <mxCell id="KgHte2kJdhpR_4D7Pjc9-3" value="&lt;font style=&quot;font-size: 16px;&quot;&gt;dim=244&lt;/font&gt;" style="rounded=0;whiteSpace=wrap;html=1;" parent="1" vertex="1">
          <mxGeometry x="331.5" y="250" width="133" height="30" as="geometry" />
        </mxCell>
        <mxCell id="KgHte2kJdhpR_4D7Pjc9-15" style="edgeStyle=orthogonalEdgeStyle;rounded=0;orthogonalLoop=1;jettySize=auto;html=1;entryX=0.5;entryY=0;entryDx=0;entryDy=0;" parent="1" source="KgHte2kJdhpR_4D7Pjc9-4" target="KgHte2kJdhpR_4D7Pjc9-5" edge="1">
          <mxGeometry relative="1" as="geometry" />
        </mxCell>
        <mxCell id="KgHte2kJdhpR_4D7Pjc9-4" value="&lt;font style=&quot;font-size: 16px;&quot;&gt;dim=122&lt;/font&gt;" style="rounded=0;whiteSpace=wrap;html=1;" parent="1" vertex="1">
          <mxGeometry x="348.75" y="300" width="98.5" height="30" as="geometry" />
        </mxCell>
        <mxCell id="KgHte2kJdhpR_4D7Pjc9-16" style="edgeStyle=orthogonalEdgeStyle;rounded=0;orthogonalLoop=1;jettySize=auto;html=1;entryX=0.5;entryY=0;entryDx=0;entryDy=0;" parent="1" source="KgHte2kJdhpR_4D7Pjc9-5" target="KgHte2kJdhpR_4D7Pjc9-6" edge="1">
          <mxGeometry relative="1" as="geometry" />
        </mxCell>
        <mxCell id="KgHte2kJdhpR_4D7Pjc9-5" value="&lt;font style=&quot;font-size: 16px;&quot;&gt;dim=61&lt;/font&gt;" style="rounded=0;whiteSpace=wrap;html=1;" parent="1" vertex="1">
          <mxGeometry x="362.37" y="350" width="71.25" height="30" as="geometry" />
        </mxCell>
        <mxCell id="KgHte2kJdhpR_4D7Pjc9-18" style="edgeStyle=orthogonalEdgeStyle;rounded=0;orthogonalLoop=1;jettySize=auto;html=1;entryX=0.5;entryY=0;entryDx=0;entryDy=0;" parent="1" source="KgHte2kJdhpR_4D7Pjc9-6" target="KgHte2kJdhpR_4D7Pjc9-7" edge="1">
          <mxGeometry relative="1" as="geometry" />
        </mxCell>
        <mxCell id="KgHte2kJdhpR_4D7Pjc9-6" value="&lt;font style=&quot;font-size: 16px;&quot;&gt;dim=61&lt;/font&gt;" style="rounded=0;whiteSpace=wrap;html=1;" parent="1" vertex="1">
          <mxGeometry x="362.38" y="400" width="71.25" height="30" as="geometry" />
        </mxCell>
        <mxCell id="KgHte2kJdhpR_4D7Pjc9-19" style="edgeStyle=orthogonalEdgeStyle;rounded=0;orthogonalLoop=1;jettySize=auto;html=1;entryX=0.5;entryY=0;entryDx=0;entryDy=0;" parent="1" source="KgHte2kJdhpR_4D7Pjc9-7" target="KgHte2kJdhpR_4D7Pjc9-8" edge="1">
          <mxGeometry relative="1" as="geometry" />
        </mxCell>
        <mxCell id="KgHte2kJdhpR_4D7Pjc9-7" value="&lt;font style=&quot;font-size: 16px;&quot;&gt;dim=122&lt;/font&gt;" style="rounded=0;whiteSpace=wrap;html=1;" parent="1" vertex="1">
          <mxGeometry x="348.76" y="450" width="98.5" height="30" as="geometry" />
        </mxCell>
        <mxCell id="KgHte2kJdhpR_4D7Pjc9-20" style="edgeStyle=orthogonalEdgeStyle;rounded=0;orthogonalLoop=1;jettySize=auto;html=1;entryX=0.5;entryY=0;entryDx=0;entryDy=0;" parent="1" source="KgHte2kJdhpR_4D7Pjc9-8" target="KgHte2kJdhpR_4D7Pjc9-9" edge="1">
          <mxGeometry relative="1" as="geometry" />
        </mxCell>
        <mxCell id="KgHte2kJdhpR_4D7Pjc9-8" value="&lt;font style=&quot;font-size: 16px;&quot;&gt;dim=244&lt;/font&gt;" style="rounded=0;whiteSpace=wrap;html=1;" parent="1" vertex="1">
          <mxGeometry x="331.49" y="500" width="133" height="30" as="geometry" />
        </mxCell>
        <mxCell id="KgHte2kJdhpR_4D7Pjc9-21" style="edgeStyle=orthogonalEdgeStyle;rounded=0;orthogonalLoop=1;jettySize=auto;html=1;entryX=0.5;entryY=0;entryDx=0;entryDy=0;" parent="1" source="KgHte2kJdhpR_4D7Pjc9-9" target="KgHte2kJdhpR_4D7Pjc9-10" edge="1">
          <mxGeometry relative="1" as="geometry" />
        </mxCell>
        <mxCell id="KgHte2kJdhpR_4D7Pjc9-9" value="&lt;font style=&quot;font-size: 16px;&quot;&gt;dim=488&lt;/font&gt;" style="rounded=0;whiteSpace=wrap;html=1;" parent="1" vertex="1">
          <mxGeometry x="317.01" y="550" width="162" height="30" as="geometry" />
        </mxCell>
        <mxCell id="KgHte2kJdhpR_4D7Pjc9-10" value="&lt;font style=&quot;font-size: 16px;&quot;&gt;dim=4880&lt;/font&gt;" style="rounded=0;whiteSpace=wrap;html=1;" parent="1" vertex="1">
          <mxGeometry x="299.99" y="600" width="196" height="30" as="geometry" />
        </mxCell>
        <mxCell id="KgHte2kJdhpR_4D7Pjc9-22" value="" style="endArrow=classic;startArrow=classic;html=1;rounded=0;" parent="1" edge="1">
          <mxGeometry width="50" height="50" relative="1" as="geometry">
            <mxPoint x="250" y="380" as="sourcePoint" />
            <mxPoint x="250" y="160" as="targetPoint" />
          </mxGeometry>
        </mxCell>
        <mxCell id="KgHte2kJdhpR_4D7Pjc9-23" value="&lt;font style=&quot;font-size: 26px;&quot;&gt;Encoder&lt;/font&gt;" style="text;html=1;strokeColor=none;fillColor=none;align=center;verticalAlign=middle;whiteSpace=wrap;rounded=0;" parent="1" vertex="1">
          <mxGeometry x="110" y="235" width="140" height="60" as="geometry" />
        </mxCell>
        <mxCell id="KgHte2kJdhpR_4D7Pjc9-25" value="&lt;font style=&quot;font-size: 26px;&quot;&gt;Decoder&lt;/font&gt;" style="text;html=1;strokeColor=none;fillColor=none;align=center;verticalAlign=middle;whiteSpace=wrap;rounded=0;" parent="1" vertex="1">
          <mxGeometry x="110" y="485" width="140" height="60" as="geometry" />
        </mxCell>
        <mxCell id="KgHte2kJdhpR_4D7Pjc9-26" value="" style="endArrow=classic;startArrow=classic;html=1;rounded=0;" parent="1" edge="1">
          <mxGeometry width="50" height="50" relative="1" as="geometry">
            <mxPoint x="250" y="625" as="sourcePoint" />
            <mxPoint x="250" y="405" as="targetPoint" />
          </mxGeometry>
        </mxCell>
        <mxCell id="6iqoi-BPOunb39NRXG81-1" value="&lt;font style=&quot;font-size: 16px;&quot;&gt;ReLU&lt;/font&gt;" style="text;html=1;strokeColor=none;fillColor=none;align=center;verticalAlign=middle;whiteSpace=wrap;rounded=0;" parent="1" vertex="1">
          <mxGeometry x="390" y="380" width="80" height="20" as="geometry" />
        </mxCell>
        <mxCell id="6iqoi-BPOunb39NRXG81-2" value="&lt;font style=&quot;font-size: 16px;&quot;&gt;ReLU&lt;/font&gt;" style="text;html=1;strokeColor=none;fillColor=none;align=center;verticalAlign=middle;whiteSpace=wrap;rounded=0;" parent="1" vertex="1">
          <mxGeometry x="390" y="230" width="80" height="20" as="geometry" />
        </mxCell>
        <mxCell id="6iqoi-BPOunb39NRXG81-3" value="&lt;font style=&quot;font-size: 16px;&quot;&gt;ReLU&lt;/font&gt;" style="text;html=1;strokeColor=none;fillColor=none;align=center;verticalAlign=middle;whiteSpace=wrap;rounded=0;" parent="1" vertex="1">
          <mxGeometry x="390" y="280" width="80" height="20" as="geometry" />
        </mxCell>
        <mxCell id="6iqoi-BPOunb39NRXG81-4" value="&lt;font style=&quot;font-size: 16px;&quot;&gt;ReLU&lt;/font&gt;" style="text;html=1;strokeColor=none;fillColor=none;align=center;verticalAlign=middle;whiteSpace=wrap;rounded=0;" parent="1" vertex="1">
          <mxGeometry x="390" y="330" width="80" height="20" as="geometry" />
        </mxCell>
        <mxCell id="6iqoi-BPOunb39NRXG81-5" value="&lt;font style=&quot;font-size: 16px;&quot;&gt;ReLU&lt;/font&gt;" style="text;html=1;strokeColor=none;fillColor=none;align=center;verticalAlign=middle;whiteSpace=wrap;rounded=0;" parent="1" vertex="1">
          <mxGeometry x="390" y="480" width="80" height="20" as="geometry" />
        </mxCell>
        <mxCell id="6iqoi-BPOunb39NRXG81-6" value="&lt;font style=&quot;font-size: 16px;&quot;&gt;ReLU&lt;/font&gt;" style="text;html=1;strokeColor=none;fillColor=none;align=center;verticalAlign=middle;whiteSpace=wrap;rounded=0;" parent="1" vertex="1">
          <mxGeometry x="390" y="530" width="80" height="20" as="geometry" />
        </mxCell>
        <mxCell id="6iqoi-BPOunb39NRXG81-7" value="&lt;font style=&quot;font-size: 16px;&quot;&gt;ReLU&lt;/font&gt;" style="text;html=1;strokeColor=none;fillColor=none;align=center;verticalAlign=middle;whiteSpace=wrap;rounded=0;" parent="1" vertex="1">
          <mxGeometry x="390" y="580" width="80" height="20" as="geometry" />
        </mxCell>
        <mxCell id="6iqoi-BPOunb39NRXG81-8" value="&lt;font style=&quot;font-size: 16px;&quot;&gt;Tanh&lt;/font&gt;" style="text;html=1;strokeColor=none;fillColor=none;align=center;verticalAlign=middle;whiteSpace=wrap;rounded=0;" parent="1" vertex="1">
          <mxGeometry x="390" y="630" width="80" height="20" as="geometry" />
        </mxCell>
        <mxCell id="6iqoi-BPOunb39NRXG81-11" value="&lt;font style=&quot;font-size: 36px;&quot;&gt;Arch2&lt;/font&gt;" style="text;html=1;strokeColor=none;fillColor=none;align=center;verticalAlign=middle;whiteSpace=wrap;rounded=0;" parent="1" vertex="1">
          <mxGeometry x="250" y="80" width="250" height="50" as="geometry" />
        </mxCell>
      </root>
    </mxGraphModel>
  </diagram>
</mxfile>
